ply
format ascii 1.0
element vertex 2320
property float x
property float y
property float z
element face 1160
property list uchar int vertex_indices
property uchar red
property uchar green
property uchar blue
end_header
4 2 0
4 3 0
4 3 1
4 2 1
4 2 0
4 2 1
5 2 1
5 2 0
4 2 0
5 2 0
5 3 0
4 3 0
4 2 1
4 3 1
4 3 2
4 2 2
4 2 1
4 2 2
5 2 2
5 2 1
4 2 2
4 3 2
4 3 3
4 2 3
4 2 2
4 2 3
5 2 3
5 2 2
4 2 3
4 3 3
4 3 4
4 2 4
4 2 3
4 2 4
5 2 4
5 2 3
4 3 0
4 4 0
4 4 1
4 3 1
4 4 0
5 4 0
5 4 1
4 4 1
4 3 0
5 3 0
5 4 0
4 4 0
4 3 1
4 4 1
4 4 2
4 3 2
4 4 1
5 4 1
5 4 2
4 4 2
4 3 2
4 4 2
4 4 3
4 3 3
4 4 2
5 4 2
5 4 3
4 4 3
4 3 3
4 4 3
4 4 4
4 3 4
4 4 3
5 4 3
5 4 4
4 4 4
6 2 0
6 2 1
6 3 1
6 3 0
5 2 0
5 2 1
6 2 1
6 2 0
5 2 0
6 2 0
6 3 0
5 3 0
6 2 1
6 2 2
6 3 2
6 3 1
5 2 1
5 2 2
6 2 2
6 2 1
6 2 2
6 2 3
6 3 3
6 3 2
5 2 2
5 2 3
6 2 3
6 2 2
6 2 3
6 2 4
6 3 4
6 3 3
5 2 3
5 2 4
6 2 4
6 2 3
6 3 0
6 3 1
6 4 1
6 4 0
5 4 0
6 4 0
6 4 1
5 4 1
5 3 0
6 3 0
6 4 0
5 4 0
6 3 1
6 3 2
6 4 2
6 4 1
5 4 1
6 4 1
6 4 2
5 4 2
6 3 2
6 3 3
6 4 3
6 4 2
5 4 2
6 4 2
6 4 3
5 4 3
6 3 3
6 3 4
6 4 4
6 4 3
5 4 3
6 4 3
6 4 4
5 4 4
9 2 0
9 3 0
9 3 1
9 2 1
9 2 0
9 2 1
10 2 1
10 2 0
9 2 0
10 2 0
10 3 0
9 3 0
9 2 1
9 3 1
9 3 2
9 2 2
9 2 1
9 2 2
10 2 2
10 2 1
9 2 2
9 3 2
9 3 3
9 2 3
9 2 2
9 2 3
10 2 3
10 2 2
9 2 3
9 3 3
9 3 4
9 2 4
9 2 3
9 2 4
10 2 4
10 2 3
9 3 0
9 4 0
9 4 1
9 3 1
9 4 0
10 4 0
10 4 1
9 4 1
9 3 0
10 3 0
10 4 0
9 4 0
9 3 1
9 4 1
9 4 2
9 3 2
9 4 1
10 4 1
10 4 2
9 4 2
9 3 2
9 4 2
9 4 3
9 3 3
9 4 2
10 4 2
10 4 3
9 4 3
9 3 3
9 4 3
9 4 4
9 3 4
9 4 3
10 4 3
10 4 4
9 4 4
11 2 0
11 2 1
11 3 1
11 3 0
10 2 0
10 2 1
11 2 1
11 2 0
10 2 0
11 2 0
11 3 0
10 3 0
11 2 1
11 2 2
11 3 2
11 3 1
10 2 1
10 2 2
11 2 2
11 2 1
11 2 2
11 2 3
11 3 3
11 3 2
10 2 2
10 2 3
11 2 3
11 2 2
11 2 3
11 2 4
11 3 4
11 3 3
10 2 3
10 2 4
11 2 4
11 2 3
11 3 0
11 3 1
11 4 1
11 4 0
10 4 0
11 4 0
11 4 1
10 4 1
10 3 0
11 3 0
11 4 0
10 4 0
11 3 1
11 3 2
11 4 2
11 4 1
10 4 1
11 4 1
11 4 2
10 4 2
11 3 2
11 3 3
11 4 3
11 4 2
10 4 2
11 4 2
11 4 3
10 4 3
11 3 3
11 3 4
11 4 4
11 4 3
10 4 3
11 4 3
11 4 4
10 4 4
4 6 0
4 7 0
4 7 1
4 6 1
4 6 0
4 6 1
5 6 1
5 6 0
4 6 0
5 6 0
5 7 0
4 7 0
4 6 1
4 7 1
4 7 2
4 6 2
4 6 1
4 6 2
5 6 2
5 6 1
4 6 2
4 7 2
4 7 3
4 6 3
4 6 2
4 6 3
5 6 3
5 6 2
4 6 3
4 7 3
4 7 4
4 6 4
4 6 3
4 6 4
5 6 4
5 6 3
4 7 0
4 8 0
4 8 1
4 7 1
4 8 0
5 8 0
5 8 1
4 8 1
4 7 0
5 7 0
5 8 0
4 8 0
4 7 1
4 8 1
4 8 2
4 7 2
4 8 1
5 8 1
5 8 2
4 8 2
4 7 2
4 8 2
4 8 3
4 7 3
4 8 2
5 8 2
5 8 3
4 8 3
4 7 3
4 8 3
4 8 4
4 7 4
4 8 3
5 8 3
5 8 4
4 8 4
6 6 0
6 6 1
6 7 1
6 7 0
5 6 0
5 6 1
6 6 1
6 6 0
5 6 0
6 6 0
6 7 0
5 7 0
6 6 1
6 6 2
6 7 2
6 7 1
5 6 1
5 6 2
6 6 2
6 6 1
6 6 2
6 6 3
6 7 3
6 7 2
5 6 2
5 6 3
6 6 3
6 6 2
6 6 3
6 6 4
6 7 4
6 7 3
5 6 3
5 6 4
6 6 4
6 6 3
6 7 0
6 7 1
6 8 1
6 8 0
5 8 0
6 8 0
6 8 1
5 8 1
5 7 0
6 7 0
6 8 0
5 8 0
6 7 1
6 7 2
6 8 2
6 8 1
5 8 1
6 8 1
6 8 2
5 8 2
6 7 2
6 7 3
6 8 3
6 8 2
5 8 2
6 8 2
6 8 3
5 8 3
6 7 3
6 7 4
6 8 4
6 8 3
5 8 3
6 8 3
6 8 4
5 8 4
9 6 0
9 7 0
9 7 1
9 6 1
9 6 0
9 6 1
10 6 1
10 6 0
9 6 0
10 6 0
10 7 0
9 7 0
9 6 1
9 7 1
9 7 2
9 6 2
9 6 1
9 6 2
10 6 2
10 6 1
9 6 2
9 7 2
9 7 3
9 6 3
9 6 2
9 6 3
10 6 3
10 6 2
9 6 3
9 7 3
9 7 4
9 6 4
9 6 3
9 6 4
10 6 4
10 6 3
9 7 0
9 8 0
9 8 1
9 7 1
9 8 0
10 8 0
10 8 1
9 8 1
9 7 0
10 7 0
10 8 0
9 8 0
9 7 1
9 8 1
9 8 2
9 7 2
9 8 1
10 8 1
10 8 2
9 8 2
9 7 2
9 8 2
9 8 3
9 7 3
9 8 2
10 8 2
10 8 3
9 8 3
9 7 3
9 8 3
9 8 4
9 7 4
9 8 3
10 8 3
10 8 4
9 8 4
11 6 0
11 6 1
11 7 1
11 7 0
10 6 0
10 6 1
11 6 1
11 6 0
10 6 0
11 6 0
11 7 0
10 7 0
11 6 1
11 6 2
11 7 2
11 7 1
10 6 1
10 6 2
11 6 2
11 6 1
11 6 2
11 6 3
11 7 3
11 7 2
10 6 2
10 6 3
11 6 3
11 6 2
11 6 3
11 6 4
11 7 4
11 7 3
10 6 3
10 6 4
11 6 4
11 6 3
11 7 0
11 7 1
11 8 1
11 8 0
10 8 0
11 8 0
11 8 1
10 8 1
10 7 0
11 7 0
11 8 0
10 8 0
11 7 1
11 7 2
11 8 2
11 8 1
10 8 1
11 8 1
11 8 2
10 8 2
11 7 2
11 7 3
11 8 3
11 8 2
10 8 2
11 8 2
11 8 3
10 8 3
11 7 3
11 7 4
11 8 4
11 8 3
10 8 3
11 8 3
11 8 4
10 8 4
3 1 4
3 2 4
3 2 5
3 1 5
3 1 4
3 1 5
4 1 5
4 1 4
3 1 4
4 1 4
4 2 4
3 2 4
3 1 5
3 2 5
3 2 6
3 1 6
3 1 5
3 1 6
4 1 6
4 1 5
3 1 6
3 2 6
3 2 7
3 1 7
3 1 6
3 1 7
4 1 7
4 1 6
3 1 7
3 2 7
3 2 8
3 1 8
3 1 7
3 1 8
4 1 8
4 1 7
3 1 8
3 2 8
3 2 9
3 1 9
3 1 8
3 1 9
4 1 9
4 1 8
3 1 9
3 2 9
4 2 9
4 1 9
3 2 4
3 3 4
3 3 5
3 2 5
3 2 4
4 2 4
4 3 4
3 3 4
3 2 5
3 3 5
3 3 6
3 2 6
3 2 6
3 3 6
3 3 7
3 2 7
3 2 7
3 3 7
3 3 8
3 2 8
3 2 8
3 3 8
3 3 9
3 2 9
3 2 9
3 3 9
4 3 9
4 2 9
3 3 4
3 4 4
3 4 5
3 3 5
3 3 4
4 3 4
4 4 4
3 4 4
3 3 5
3 4 5
3 4 6
3 3 6
3 3 6
3 4 6
3 4 7
3 3 7
3 3 7
3 4 7
3 4 8
3 3 8
3 3 8
3 4 8
3 4 9
3 3 9
3 3 9
3 4 9
4 4 9
4 3 9
3 4 4
3 5 4
3 5 5
3 4 5
3 4 4
4 4 4
4 5 4
3 5 4
3 4 5
3 5 5
3 5 6
3 4 6
3 4 6
3 5 6
3 5 7
3 4 7
3 4 7
3 5 7
3 5 8
3 4 8
3 4 8
3 5 8
3 5 9
3 4 9
3 4 9
3 5 9
4 5 9
4 4 9
3 5 4
3 6 4
3 6 5
3 5 5
3 5 4
4 5 4
4 6 4
3 6 4
3 5 5
3 6 5
3 6 6
3 5 6
3 5 6
3 6 6
3 6 7
3 5 7
3 5 7
3 6 7
3 6 8
3 5 8
3 5 8
3 6 8
3 6 9
3 5 9
3 5 9
3 6 9
4 6 9
4 5 9
3 6 4
3 7 4
3 7 5
3 6 5
3 6 4
4 6 4
4 7 4
3 7 4
3 6 5
3 7 5
3 7 6
3 6 6
3 6 6
3 7 6
3 7 7
3 6 7
3 6 7
3 7 7
3 7 8
3 6 8
3 6 8
3 7 8
3 7 9
3 6 9
3 6 9
3 7 9
4 7 9
4 6 9
3 7 4
3 8 4
3 8 5
3 7 5
3 8 4
4 8 4
4 8 5
3 8 5
3 7 4
4 7 4
4 8 4
3 8 4
3 7 5
3 8 5
3 8 6
3 7 6
3 8 5
4 8 5
4 8 6
3 8 6
3 7 6
3 8 6
3 8 7
3 7 7
3 8 6
4 8 6
4 8 7
3 8 7
3 7 7
3 8 7
3 8 8
3 7 8
3 8 7
4 8 7
4 8 8
3 8 8
3 7 8
3 8 8
3 8 9
3 7 9
3 8 8
4 8 8
4 8 9
3 8 9
3 7 9
3 8 9
4 8 9
4 7 9
4 1 4
4 1 5
5 1 5
5 1 4
4 1 4
5 1 4
5 2 4
4 2 4
4 1 5
4 1 6
5 1 6
5 1 5
4 1 6
4 1 7
5 1 7
5 1 6
4 1 7
4 1 8
5 1 8
5 1 7
4 1 8
4 1 9
5 1 9
5 1 8
4 1 9
4 2 9
5 2 9
5 1 9
4 4 4
5 4 4
5 5 4
4 5 4
4 5 4
5 5 4
5 6 4
4 6 4
4 8 4
5 8 4
5 8 5
4 8 5
4 8 5
5 8 5
5 8 6
4 8 6
4 8 6
5 8 6
5 8 7
4 8 7
4 8 7
5 8 7
5 8 8
4 8 8
4 8 8
5 8 8
5 8 9
4 8 9
4 7 9
4 8 9
5 8 9
5 7 9
5 1 4
5 1 5
6 1 5
6 1 4
5 1 4
6 1 4
6 2 4
5 2 4
5 1 5
5 1 6
6 1 6
6 1 5
5 1 6
5 1 7
6 1 7
6 1 6
5 1 7
5 1 8
6 1 8
6 1 7
5 1 8
5 1 9
6 1 9
6 1 8
5 1 9
5 2 9
6 2 9
6 1 9
5 4 4
6 4 4
6 5 4
5 5 4
5 5 4
6 5 4
6 6 4
5 6 4
5 8 4
6 8 4
6 8 5
5 8 5
5 8 5
6 8 5
6 8 6
5 8 6
5 8 6
6 8 6
6 8 7
5 8 7
5 8 7
6 8 7
6 8 8
5 8 8
5 8 8
6 8 8
6 8 9
5 8 9
5 7 9
5 8 9
6 8 9
6 7 9
6 1 4
6 1 5
7 1 5
7 1 4
6 1 4
7 1 4
7 2 4
6 2 4
6 1 5
6 1 6
7 1 6
7 1 5
6 1 6
6 1 7
7 1 7
7 1 6
6 1 7
6 1 8
7 1 8
7 1 7
6 1 8
6 1 9
7 1 9
7 1 8
6 1 9
6 2 9
7 2 9
7 1 9
6 2 4
7 2 4
7 3 4
6 3 4
6 3 4
7 3 4
7 4 4
6 4 4
6 4 4
7 4 4
7 5 4
6 5 4
6 5 4
7 5 4
7 6 4
6 6 4
6 6 4
7 6 4
7 7 4
6 7 4
6 8 4
7 8 4
7 8 5
6 8 5
6 7 4
7 7 4
7 8 4
6 8 4
6 8 5
7 8 5
7 8 6
6 8 6
6 8 6
7 8 6
7 8 7
6 8 7
6 8 7
7 8 7
7 8 8
6 8 8
6 8 8
7 8 8
7 8 9
6 8 9
6 7 9
6 8 9
7 8 9
7 7 9
7 1 4
7 1 5
8 1 5
8 1 4
7 1 4
8 1 4
8 2 4
7 2 4
7 1 5
7 1 6
8 1 6
8 1 5
7 1 6
7 1 7
8 1 7
8 1 6
7 1 7
7 1 8
8 1 8
8 1 7
7 1 8
7 1 9
8 1 9
8 1 8
7 1 9
7 2 9
8 2 9
8 1 9
7 2 4
8 2 4
8 3 4
7 3 4
7 3 4
8 3 4
8 4 4
7 4 4
7 4 4
8 4 4
8 5 4
7 5 4
7 5 4
8 5 4
8 6 4
7 6 4
7 6 4
8 6 4
8 7 4
7 7 4
7 8 4
8 8 4
8 8 5
7 8 5
7 7 4
8 7 4
8 8 4
7 8 4
7 8 5
8 8 5
8 8 6
7 8 6
7 8 6
8 8 6
8 8 7
7 8 7
7 7 9
7 8 9
8 8 9
8 7 9
8 1 4
8 1 5
9 1 5
9 1 4
8 1 4
9 1 4
9 2 4
8 2 4
8 1 5
8 1 6
9 1 6
9 1 5
8 1 6
8 1 7
9 1 7
9 1 6
8 1 7
8 1 8
9 1 8
9 1 7
8 1 8
8 1 9
9 1 9
9 1 8
8 1 9
8 2 9
9 2 9
9 1 9
8 2 4
9 2 4
9 3 4
8 3 4
8 3 4
9 3 4
9 4 4
8 4 4
8 4 4
9 4 4
9 5 4
8 5 4
8 5 4
9 5 4
9 6 4
8 6 4
8 6 4
9 6 4
9 7 4
8 7 4
8 8 4
9 8 4
9 8 5
8 8 5
8 7 4
9 7 4
9 8 4
8 8 4
8 8 5
9 8 5
9 8 6
8 8 6
8 8 6
9 8 6
9 8 7
8 8 7
8 8 7
9 8 7
9 8 8
8 8 8
8 8 8
9 8 8
9 8 9
8 8 9
8 7 9
8 8 9
9 8 9
9 7 9
9 1 4
9 1 5
10 1 5
10 1 4
9 1 4
10 1 4
10 2 4
9 2 4
9 1 5
9 1 6
10 1 6
10 1 5
9 1 6
9 1 7
10 1 7
10 1 6
9 1 7
9 1 8
10 1 8
10 1 7
9 1 8
9 1 9
10 1 9
10 1 8
9 1 9
9 2 9
10 2 9
10 1 9
9 4 4
10 4 4
10 5 4
9 5 4
9 5 4
10 5 4
10 6 4
9 6 4
9 8 4
10 8 4
10 8 5
9 8 5
9 8 5
10 8 5
10 8 6
9 8 6
9 8 6
10 8 6
10 8 7
9 8 7
9 8 7
10 8 7
10 8 8
9 8 8
9 8 8
10 8 8
10 8 9
9 8 9
9 7 9
9 8 9
10 8 9
10 7 9
11 1 4
11 1 5
11 2 5
11 2 4
10 1 4
10 1 5
11 1 5
11 1 4
10 1 4
11 1 4
11 2 4
10 2 4
11 1 5
11 1 6
11 2 6
11 2 5
10 1 5
10 1 6
11 1 6
11 1 5
11 1 6
11 1 7
11 2 7
11 2 6
10 1 6
10 1 7
11 1 7
11 1 6
11 1 7
11 1 8
11 2 8
11 2 7
10 1 7
10 1 8
11 1 8
11 1 7
11 1 8
11 1 9
11 2 9
11 2 8
10 1 8
10 1 9
11 1 9
11 1 8
10 1 9
10 2 9
11 2 9
11 1 9
11 2 4
11 2 5
11 3 5
11 3 4
11 2 5
11 2 6
11 3 6
11 3 5
11 2 6
11 2 7
11 3 7
11 3 6
11 2 7
11 2 8
11 3 8
11 3 7
11 2 8
11 2 9
11 3 9
11 3 8
10 2 9
10 3 9
11 3 9
11 2 9
11 3 4
11 3 5
11 4 5
11 4 4
11 3 5
11 3 6
11 4 6
11 4 5
11 3 6
11 3 7
11 4 7
11 4 6
11 3 7
11 3 8
11 4 8
11 4 7
11 3 8
11 3 9
11 4 9
11 4 8
10 3 9
10 4 9
11 4 9
11 3 9
11 4 4
11 4 5
11 5 5
11 5 4
10 4 4
11 4 4
11 5 4
10 5 4
11 4 5
11 4 6
11 5 6
11 5 5
11 4 6
11 4 7
11 5 7
11 5 6
11 4 7
11 4 8
11 5 8
11 5 7
11 4 8
11 4 9
11 5 9
11 5 8
10 4 9
10 5 9
11 5 9
11 4 9
11 5 4
11 5 5
11 6 5
11 6 4
10 5 4
11 5 4
11 6 4
10 6 4
11 5 5
11 5 6
11 6 6
11 6 5
11 5 6
11 5 7
11 6 7
11 6 6
11 5 7
11 5 8
11 6 8
11 6 7
11 5 8
11 5 9
11 6 9
11 6 8
10 5 9
10 6 9
11 6 9
11 5 9
11 6 4
11 6 5
11 7 5
11 7 4
11 6 5
11 6 6
11 7 6
11 7 5
11 6 6
11 6 7
11 7 7
11 7 6
11 6 7
11 6 8
11 7 8
11 7 7
11 6 8
11 6 9
11 7 9
11 7 8
10 6 9
10 7 9
11 7 9
11 6 9
11 7 4
11 7 5
11 8 5
11 8 4
10 8 4
11 8 4
11 8 5
10 8 5
11 7 5
11 7 6
11 8 6
11 8 5
10 8 5
11 8 5
11 8 6
10 8 6
11 7 6
11 7 7
11 8 7
11 8 6
10 8 6
11 8 6
11 8 7
10 8 7
11 7 7
11 7 8
11 8 8
11 8 7
10 8 7
11 8 7
11 8 8
10 8 8
11 7 8
11 7 9
11 8 9
11 8 8
10 8 8
11 8 8
11 8 9
10 8 9
10 7 9
10 8 9
11 8 9
11 7 9
4 2 9
4 3 9
4 3 10
4 2 10
4 2 9
4 2 10
5 2 10
5 2 9
4 3 9
4 4 9
4 4 10
4 3 10
4 4 9
4 5 9
4 5 10
4 4 10
4 5 9
4 6 9
4 6 10
4 5 10
4 6 9
4 7 9
4 7 10
4 6 10
4 7 9
5 7 9
5 7 10
4 7 10
5 2 9
5 2 10
6 2 10
6 2 9
5 7 9
6 7 9
6 7 10
5 7 10
6 2 9
6 2 10
7 2 10
7 2 9
6 7 9
7 7 9
7 7 10
6 7 10
7 2 9
7 2 10
8 2 10
8 2 9
7 7 9
8 7 9
8 7 10
7 7 10
8 2 9
8 2 10
9 2 10
9 2 9
8 7 9
9 7 9
9 7 10
8 7 10
10 2 9
10 2 10
10 3 10
10 3 9
9 2 9
9 2 10
10 2 10
10 2 9
10 3 9
10 3 10
10 4 10
10 4 9
10 4 9
10 4 10
10 5 10
10 5 9
10 5 9
10 5 10
10 6 10
10 6 9
10 6 9
10 6 10
10 7 10
10 7 9
9 7 9
10 7 9
10 7 10
9 7 10
4 1 10
4 2 10
4 2 11
4 1 11
4 1 10
4 1 11
5 1 11
5 1 10
4 1 10
5 1 10
5 2 10
4 2 10
4 1 11
4 2 11
4 2 12
4 1 12
4 1 11
4 1 12
5 1 12
5 1 11
4 1 12
4 2 12
4 2 13
4 1 13
4 1 12
4 1 13
5 1 13
5 1 12
4 1 13
4 2 13
4 2 14
4 1 14
4 1 13
4 1 14
5 1 14
5 1 13
4 1 14
4 2 14
5 2 14
5 1 14
4 2 10
4 3 10
4 3 11
4 2 11
4 2 11
4 3 11
4 3 12
4 2 12
4 2 12
4 3 12
4 3 13
4 2 13
4 2 13
4 3 13
4 3 14
4 2 14
4 2 14
4 3 14
5 3 14
5 2 14
4 3 10
4 4 10
4 4 11
4 3 11
4 3 11
4 4 11
4 4 12
4 3 12
4 3 12
4 4 12
4 4 13
4 3 13
4 3 13
4 4 13
4 4 14
4 3 14
4 4 10
4 5 10
4 5 11
4 4 11
4 4 11
4 5 11
4 5 12
4 4 12
4 4 12
4 5 12
4 5 13
4 4 13
4 4 13
4 5 13
4 5 14
4 4 14
4 5 10
4 6 10
4 6 11
4 5 11
4 5 11
4 6 11
4 6 12
4 5 12
4 5 12
4 6 12
4 6 13
4 5 13
4 5 13
4 6 13
4 6 14
4 5 14
4 5 14
4 6 14
5 6 14
5 5 14
4 6 10
4 7 10
4 7 11
4 6 11
4 7 10
5 7 10
5 7 11
4 7 11
4 6 11
4 7 11
4 7 12
4 6 12
4 7 11
5 7 11
5 7 12
4 7 12
4 6 12
4 7 12
4 7 13
4 6 13
4 7 12
5 7 12
5 7 13
4 7 13
4 6 13
4 7 13
4 7 14
4 6 14
4 7 13
5 7 13
5 7 14
4 7 14
4 6 14
4 7 14
5 7 14
5 6 14
5 1 10
5 1 11
6 1 11
6 1 10
5 1 10
6 1 10
6 2 10
5 2 10
5 1 11
5 1 12
6 1 12
6 1 11
5 1 12
5 1 13
6 1 13
6 1 12
5 1 13
5 1 14
6 1 14
6 1 13
5 1 14
5 2 14
6 2 14
6 1 14
5 2 14
5 3 14
6 3 14
6 2 14
5 5 14
5 6 14
6 6 14
6 5 14
5 7 10
6 7 10
6 7 11
5 7 11
5 7 11
6 7 11
6 7 12
5 7 12
5 7 12
6 7 12
6 7 13
5 7 13
5 7 13
6 7 13
6 7 14
5 7 14
5 6 14
5 7 14
6 7 14
6 6 14
6 1 10
6 1 11
7 1 11
7 1 10
6 1 10
7 1 10
7 2 10
6 2 10
6 1 11
6 1 12
7 1 12
7 1 11
6 1 12
6 1 13
7 1 13
7 1 12
6 1 13
6 1 14
7 1 14
7 1 13
6 1 14
6 2 14
7 2 14
7 1 14
6 2 14
6 3 14
7 3 14
7 2 14
6 3 14
6 4 14
7 4 14
7 3 14
6 4 14
6 5 14
7 5 14
7 4 14
6 5 14
6 6 14
7 6 14
7 5 14
6 7 10
7 7 10
7 7 11
6 7 11
6 7 11
7 7 11
7 7 12
6 7 12
6 7 12
7 7 12
7 7 13
6 7 13
6 7 13
7 7 13
7 7 14
6 7 14
6 6 14
6 7 14
7 7 14
7 6 14
7 1 10
7 1 11
8 1 11
8 1 10
7 1 10
8 1 10
8 2 10
7 2 10
7 1 11
7 1 12
8 1 12
8 1 11
7 1 12
7 1 13
8 1 13
8 1 12
7 1 13
7 1 14
8 1 14
8 1 13
7 1 14
7 2 14
8 2 14
8 1 14
7 2 14
7 3 14
8 3 14
8 2 14
7 3 14
7 4 14
8 4 14
8 3 14
7 4 14
7 5 14
8 5 14
8 4 14
7 5 14
7 6 14
8 6 14
8 5 14
7 7 10
8 7 10
8 7 11
7 7 11
7 7 11
8 7 11
8 7 12
7 7 12
7 7 12
8 7 12
8 7 13
7 7 13
7 7 13
8 7 13
8 7 14
7 7 14
7 6 14
7 7 14
8 7 14
8 6 14
8 1 10
8 1 11
9 1 11
9 1 10
8 1 10
9 1 10
9 2 10
8 2 10
8 1 11
8 1 12
9 1 12
9 1 11
8 1 12
8 1 13
9 1 13
9 1 12
8 1 13
8 1 14
9 1 14
9 1 13
8 1 14
8 2 14
9 2 14
9 1 14
8 2 14
8 3 14
9 3 14
9 2 14
8 3 14
8 4 14
9 4 14
9 3 14
8 4 14
8 5 14
9 5 14
9 4 14
8 5 14
8 6 14
9 6 14
9 5 14
8 7 10
9 7 10
9 7 11
8 7 11
8 7 11
9 7 11
9 7 12
8 7 12
8 7 12
9 7 12
9 7 13
8 7 13
8 7 13
9 7 13
9 7 14
8 7 14
8 6 14
8 7 14
9 7 14
9 6 14
10 1 10
10 1 11
10 2 11
10 2 10
9 1 10
9 1 11
10 1 11
10 1 10
9 1 10
10 1 10
10 2 10
9 2 10
10 1 11
10 1 12
10 2 12
10 2 11
9 1 11
9 1 12
10 1 12
10 1 11
10 1 12
10 1 13
10 2 13
10 2 12
9 1 12
9 1 13
10 1 13
10 1 12
10 1 13
10 1 14
10 2 14
10 2 13
9 1 13
9 1 14
10 1 14
10 1 13
9 1 14
9 2 14
10 2 14
10 1 14
10 2 10
10 2 11
10 3 11
10 3 10
10 2 11
10 2 12
10 3 12
10 3 11
10 2 12
10 2 13
10 3 13
10 3 12
10 2 13
10 2 14
10 3 14
10 3 13
9 2 14
9 3 14
10 3 14
10 2 14
10 3 10
10 3 11
10 4 11
10 4 10
10 3 11
10 3 12
10 4 12
10 4 11
10 3 12
10 3 13
10 4 13
10 4 12
10 3 13
10 3 14
10 4 14
10 4 13
10 4 10
10 4 11
10 5 11
10 5 10
10 4 11
10 4 12
10 5 12
10 5 11
10 4 12
10 4 13
10 5 13
10 5 12
10 4 13
10 4 14
10 5 14
10 5 13
10 5 10
10 5 11
10 6 11
10 6 10
10 5 11
10 5 12
10 6 12
10 6 11
10 5 12
10 5 13
10 6 13
10 6 12
10 5 13
10 5 14
10 6 14
10 6 13
9 5 14
9 6 14
10 6 14
10 5 14
10 6 10
10 6 11
10 7 11
10 7 10
9 7 10
10 7 10
10 7 11
9 7 11
10 6 11
10 6 12
10 7 12
10 7 11
9 7 11
10 7 11
10 7 12
9 7 12
10 6 12
10 6 13
10 7 13
10 7 12
9 7 12
10 7 12
10 7 13
9 7 13
10 6 13
10 6 14
10 7 14
10 7 13
9 7 13
10 7 13
10 7 14
9 7 14
9 6 14
9 7 14
10 7 14
10 6 14
4 3 14
4 4 14
4 4 15
4 3 15
4 3 14
4 3 15
5 3 15
5 3 14
6 3 14
6 3 15
6 4 15
6 4 14
5 3 14
5 3 15
6 3 15
6 3 14
5 3 15
5 4 15
6 4 15
6 3 15
4 4 14
4 5 14
4 5 15
4 4 15
4 5 14
5 5 14
5 5 15
4 5 15
4 4 15
4 5 15
5 5 15
5 4 15
6 4 14
6 4 15
6 5 15
6 5 14
5 5 14
6 5 14
6 5 15
5 5 15
4 3 15
4 4 15
4 4 16
4 3 16
5 3 15
5 3 16
5 4 16
5 4 15
4 3 15
4 3 16
5 3 16
5 3 15
4 4 15
5 4 15
5 4 16
4 4 16
4 3 16
4 4 16
5 4 16
5 3 16
5 4 15
5 5 15
5 5 16
5 4 16
6 4 15
6 4 16
6 5 16
6 5 15
5 4 15
5 4 16
6 4 16
6 4 15
5 5 15
6 5 15
6 5 16
5 5 16
5 4 16
5 5 16
6 5 16
6 4 16
9 3 14
9 4 14
9 4 15
9 3 15
9 3 14
9 3 15
10 3 15
10 3 14
11 3 14
11 3 15
11 4 15
11 4 14
10 3 14
10 3 15
11 3 15
11 3 14
10 3 14
11 3 14
11 4 14
10 4 14
10 3 15
10 4 15
11 4 15
11 3 15
9 4 14
9 5 14
9 5 15
9 4 15
9 5 14
10 5 14
10 5 15
9 5 15
9 4 15
9 5 15
10 5 15
10 4 15
11 4 14
11 4 15
11 5 15
11 5 14
10 5 14
11 5 14
11 5 15
10 5 15
10 4 14
11 4 14
11 5 14
10 5 14
9 3 15
9 4 15
9 4 16
9 3 16
10 3 15
10 3 16
10 4 16
10 4 15
9 3 15
9 3 16
10 3 16
10 3 15
9 4 15
10 4 15
10 4 16
9 4 16
9 3 16
9 4 16
10 4 16
10 3 16
10 4 15
10 5 15
10 5 16
10 4 16
11 4 15
11 4 16
11 5 16
11 5 15
10 4 15
10 4 16
11 4 16
11 4 15
10 5 15
11 5 15
11 5 16
10 5 16
10 4 16
10 5 16
11 5 16
11 4 16
7 8 7
7 9 7
7 9 8
7 8 8
8 8 7
8 8 8
8 9 8
8 9 7
7 9 7
8 9 7
8 9 8
7 9 8
7 8 7
8 8 7
8 9 7
7 9 7
7 8 8
7 9 8
7 9 9
7 8 9
8 8 8
8 8 9
8 9 9
8 9 8
7 9 8
8 9 8
8 9 9
7 9 9
7 8 9
7 9 9
7 9 10
7 8 10
8 8 9
8 8 10
8 9 10
8 9 9
7 8 9
7 8 10
8 8 10
8 8 9
7 9 9
8 9 9
8 9 10
7 9 10
7 8 10
7 9 10
8 9 10
8 8 10
7 9 10
7 10 10
7 10 11
7 9 11
8 9 10
8 9 11
8 10 11
8 10 10
7 9 10
7 9 11
8 9 11
8 9 10
7 10 10
8 10 10
8 10 11
7 10 11
7 9 10
8 9 10
8 10 10
7 10 10
7 9 11
7 10 11
7 10 12
7 9 12
8 9 11
8 9 12
8 10 12
8 10 11
7 9 11
7 9 12
8 9 12
8 9 11
7 10 11
8 10 11
8 10 12
7 10 12
7 9 12
7 10 12
7 10 13
7 9 13
8 9 12
8 9 13
8 10 13
8 10 12
7 9 12
7 9 13
8 9 13
8 9 12
7 10 12
8 10 12
8 10 13
7 10 13
7 9 13
7 10 13
8 10 13
8 9 13
3 0 1 2 221 134 43
3 0 2 3 221 134 43
3 4 5 6 221 134 43
3 4 6 7 221 134 43
3 8 9 10 221 134 43
3 8 10 11 221 134 43
3 12 13 14 224 130 33
3 12 14 15 224 130 33
3 16 17 18 224 130 33
3 16 18 19 224 130 33
3 20 21 22 220 138 39
3 20 22 23 220 138 39
3 24 25 26 220 138 39
3 24 26 27 220 138 39
3 28 29 30 215 144 43
3 28 30 31 215 144 43
3 32 33 34 215 144 43
3 32 34 35 215 144 43
3 36 37 38 220 145 42
3 36 38 39 220 145 42
3 40 41 42 220 145 42
3 40 42 43 220 145 42
3 44 45 46 220 145 42
3 44 46 47 220 145 42
3 48 49 50 215 141 35
3 48 50 51 215 141 35
3 52 53 54 215 141 35
3 52 54 55 215 141 35
3 56 57 58 224 139 39
3 56 58 59 224 139 39
3 60 61 62 224 139 39
3 60 62 63 224 139 39
3 64 65 66 216 146 39
3 64 66 67 216 146 39
3 68 69 70 216 146 39
3 68 70 71 216 146 39
3 72 73 74 217 138 42
3 72 74 75 217 138 42
3 76 77 78 217 138 42
3 76 78 79 217 138 42
3 80 81 82 217 138 42
3 80 82 83 217 138 42
3 84 85 86 221 142 42
3 84 86 87 221 142 42
3 88 89 90 221 142 42
3 88 90 91 221 142 42
3 92 93 94 230 137 37
3 92 94 95 230 137 37
3 96 97 98 230 137 37
3 96 98 99 230 137 37
3 100 101 102 215 143 45
3 100 102 103 215 143 45
3 104 105 106 215 143 45
3 104 106 107 215 143 45
3 108 109 110 219 135 35
3 108 110 111 219 135 35
3 112 113 114 219 135 35
3 112 114 115 219 135 35
3 116 117 118 219 135 35
3 116 118 119 219 135 35
3 120 121 122 223 143 42
3 120 122 123 223 143 42
3 124 125 126 223 143 42
3 124 126 127 223 143 42
3 128 129 130 216 141 40
3 128 130 131 216 141 40
3 132 133 134 216 141 40
3 132 134 135 216 141 40
3 136 137 138 221 144 41
3 136 138 139 221 144 41
3 140 141 142 221 144 41
3 140 142 143 221 144 41
3 144 145 146 223 140 41
3 144 146 147 223 140 41
3 148 149 150 223 140 41
3 148 150 151 223 140 41
3 152 153 154 223 140 41
3 152 154 155 223 140 41
3 156 157 158 223 132 38
3 156 158 159 223 132 38
3 160 161 162 223 132 38
3 160 162 163 223 132 38
3 164 165 166 217 136 38
3 164 166 167 217 136 38
3 168 169 170 217 136 38
3 168 170 171 217 136 38
3 172 173 174 227 135 44
3 172 174 175 227 135 44
3 176 177 178 227 135 44
3 176 178 179 227 135 44
3 180 181 182 211 138 40
3 180 182 183 211 138 40
3 184 185 186 211 138 40
3 184 186 187 211 138 40
3 188 189 190 211 138 40
3 188 190 191 211 138 40
3 192 193 194 222 143 43
3 192 194 195 222 143 43
3 196 197 198 222 143 43
3 196 198 199 222 143 43
3 200 201 202 218 137 44
3 200 202 203 218 137 44
3 204 205 206 218 137 44
3 204 206 207 218 137 44
3 208 209 210 219 133 34
3 208 210 211 219 133 34
3 212 213 214 219 133 34
3 212 214 215 219 133 34
3 216 217 218 215 142 40
3 216 218 219 215 142 40
3 220 221 222 215 142 40
3 220 222 223 215 142 40
3 224 225 226 215 142 40
3 224 226 227 215 142 40
3 228 229 230 223 137 40
3 228 230 231 223 137 40
3 232 233 234 223 137 40
3 232 234 235 223 137 40
3 236 237 238 223 138 42
3 236 238 239 223 138 42
3 240 241 242 223 138 42
3 240 242 243 223 138 42
3 244 245 246 216 138 38
3 244 246 247 216 138 38
3 248 249 250 216 138 38
3 248 250 251 216 138 38
3 252 253 254 214 142 37
3 252 254 255 214 142 37
3 256 257 258 214 142 37
3 256 258 259 214 142 37
3 260 261 262 214 142 37
3 260 262 263 214 142 37
3 264 265 266 220 142 42
3 264 266 267 220 142 42
3 268 269 270 220 142 42
3 268 270 271 220 142 42
3 272 273 274 223 139 37
3 272 274 275 223 139 37
3 276 277 278 223 139 37
3 276 278 279 223 139 37
3 280 281 282 219 131 32
3 280 282 283 219 131 32
3 284 285 286 219 131 32
3 284 286 287 219 131 32
3 288 289 290 213 135 41
3 288 290 291 213 135 41
3 292 293 294 213 135 41
3 292 294 295 213 135 41
3 296 297 298 213 135 41
3 296 298 299 213 135 41
3 300 301 302 215 138 46
3 300 302 303 215 138 46
3 304 305 306 215 138 46
3 304 306 307 215 138 46
3 308 309 310 218 143 35
3 308 310 311 218 143 35
3 312 313 314 218 143 35
3 312 314 315 218 143 35
3 316 317 318 218 135 38
3 316 318 319 218 135 38
3 320 321 322 218 135 38
3 320 322 323 218 135 38
3 324 325 326 224 131 42
3 324 326 327 224 131 42
3 328 329 330 224 131 42
3 328 330 331 224 131 42
3 332 333 334 224 131 42
3 332 334 335 224 131 42
3 336 337 338 221 137 32
3 336 338 339 221 137 32
3 340 341 342 221 137 32
3 340 342 343 221 137 32
3 344 345 346 220 137 41
3 344 346 347 220 137 41
3 348 349 350 220 137 41
3 348 350 351 220 137 41
3 352 353 354 220 148 38
3 352 354 355 220 148 38
3 356 357 358 220 148 38
3 356 358 359 220 148 38
3 360 361 362 214 140 41
3 360 362 363 214 140 41
3 364 365 366 214 140 41
3 364 366 367 214 140 41
3 368 369 370 214 140 41
3 368 370 371 214 140 41
3 372 373 374 226 144 41
3 372 374 375 226 144 41
3 376 377 378 226 144 41
3 376 378 379 226 144 41
3 380 381 382 227 134 36
3 380 382 383 227 134 36
3 384 385 386 227 134 36
3 384 386 387 227 134 36
3 388 389 390 215 138 33
3 388 390 391 215 138 33
3 392 393 394 215 138 33
3 392 394 395 215 138 33
3 396 397 398 223 138 32
3 396 398 399 223 138 32
3 400 401 402 223 138 32
3 400 402 403 223 138 32
3 404 405 406 223 138 32
3 404 406 407 223 138 32
3 408 409 410 214 141 44
3 408 410 411 214 141 44
3 412 413 414 214 141 44
3 412 414 415 214 141 44
3 416 417 418 229 154 42
3 416 418 419 229 154 42
3 420 421 422 229 154 42
3 420 422 423 229 154 42
3 424 425 426 215 129 41
3 424 426 427 215 129 41
3 428 429 430 215 129 41
3 428 430 431 215 129 41
3 432 433 434 215 137 36
3 432 434 435 215 137 36
3 436 437 438 215 137 36
3 436 438 439 215 137 36
3 440 441 442 215 137 36
3 440 442 443 215 137 36
3 444 445 446 219 145 40
3 444 446 447 219 145 40
3 448 449 450 219 145 40
3 448 450 451 219 145 40
3 452 453 454 219 134 31
3 452 454 455 219 134 31
3 456 457 458 219 134 31
3 456 458 459 219 134 31
3 460 461 462 217 139 48
3 460 462 463 217 139 48
3 464 465 466 217 139 48
3 464 466 467 217 139 48
3 468 469 470 220 144 37
3 468 470 471 220 144 37
3 472 473 474 220 144 37
3 472 474 475 220 144 37
3 476 477 478 220 144 37
3 476 478 479 220 144 37
3 480 481 482 214 135 36
3 480 482 483 214 135 36
3 484 485 486 214 135 36
3 484 486 487 214 135 36
3 488 489 490 230 135 44
3 488 490 491 230 135 44
3 492 493 494 230 135 44
3 492 494 495 230 135 44
3 496 497 498 215 144 41
3 496 498 499 215 144 41
3 500 501 502 215 144 41
3 500 502 503 215 144 41
3 504 505 506 219 139 36
3 504 506 507 219 139 36
3 508 509 510 219 139 36
3 508 510 511 219 139 36
3 512 513 514 219 139 36
3 512 514 515 219 139 36
3 516 517 518 222 137 33
3 516 518 519 222 137 33
3 520 521 522 222 137 33
3 520 522 523 222 137 33
3 524 525 526 213 140 47
3 524 526 527 213 140 47
3 528 529 530 213 140 47
3 528 530 531 213 140 47
3 532 533 534 220 139 41
3 532 534 535 220 139 41
3 536 537 538 220 139 41
3 536 538 539 220 139 41
3 540 541 542 226 141 37
3 540 542 543 226 141 37
3 544 545 546 226 141 37
3 544 546 547 226 141 37
3 548 549 550 226 141 37
3 548 550 551 226 141 37
3 552 553 554 225 142 47
3 552 554 555 225 142 47
3 556 557 558 225 142 47
3 556 558 559 225 142 47
3 560 561 562 220 133 33
3 560 562 563 220 133 33
3 564 565 566 220 133 33
3 564 566 567 220 133 33
3 568 569 570 228 148 39
3 568 570 571 228 148 39
3 572 573 574 228 148 39
3 572 574 575 228 148 39
3 576 577 578 218 147 34
3 576 578 579 218 147 34
3 580 581 582 218 147 34
3 580 582 583 218 147 34
3 584 585 586 218 147 34
3 584 586 587 218 147 34
3 588 589 590 215 143 38
3 588 590 591 215 143 38
3 592 593 594 215 143 38
3 592 594 595 215 143 38
3 596 597 598 219 139 41
3 596 598 599 219 139 41
3 600 601 602 219 139 41
3 600 602 603 219 139 41
3 604 605 606 227 140 43
3 604 606 607 227 140 43
3 608 609 610 227 140 43
3 608 610 611 227 140 43
3 612 613 614 209 139 35
3 612 614 615 209 139 35
3 616 617 618 209 139 35
3 616 618 619 209 139 35
3 620 621 622 209 139 35
3 620 622 623 209 139 35
3 624 625 626 213 135 38
3 624 626 627 213 135 38
3 628 629 630 213 135 38
3 628 630 631 213 135 38
3 632 633 634 224 133 40
3 632 634 635 224 133 40
3 636 637 638 217 138 45
3 636 638 639 217 138 45
3 640 641 642 222 146 39
3 640 642 643 222 146 39
3 644 645 646 216 138 41
3 644 646 647 216 138 41
3 648 649 650 216 138 41
3 648 650 651 216 138 41
3 652 653 654 220 134 40
3 652 654 655 220 134 40
3 656 657 658 220 134 40
3 656 658 659 220 134 40
3 660 661 662 221 152 49
3 660 662 663 221 152 49
3 664 665 666 215 138 32
3 664 666 667 215 138 32
3 668 669 670 217 141 46
3 668 670 671 217 141 46
3 672 673 674 216 136 29
3 672 674 675 216 136 29
3 676 677 678 216 136 29
3 676 678 679 216 136 29
3 680 681 682 219 134 37
3 680 682 683 219 134 37
3 684 685 686 219 134 37
3 684 686 687 219 134 37
3 688 689 690 215 139 31
3 688 690 691 215 139 31
3 692 693 694 212 150 33
3 692 694 695 212 150 33
3 696 697 698 214 149 54
3 696 698 699 214 149 54
3 700 701 702 214 138 41
3 700 702 703 214 138 41
3 704 705 706 214 138 41
3 704 706 707 214 138 41
3 708 709 710 228 135 38
3 708 710 711 228 135 38
3 712 713 714 228 135 38
3 712 714 715 228 135 38
3 716 717 718 223 142 38
3 716 718 719 223 142 38
3 720 721 722 219 133 38
3 720 722 723 219 133 38
3 724 725 726 218 141 37
3 724 726 727 218 141 37
3 728 729 730 222 145 40
3 728 730 731 222 145 40
3 732 733 734 222 145 40
3 732 734 735 222 145 40
3 736 737 738 221 140 40
3 736 738 739 221 140 40
3 740 741 742 221 140 40
3 740 742 743 221 140 40
3 744 745 746 216 141 39
3 744 746 747 216 141 39
3 748 749 750 230 147 41
3 748 750 751 230 147 41
3 752 753 754 216 134 45
3 752 754 755 216 134 45
3 756 757 758 221 142 31
3 756 758 759 221 142 31
3 760 761 762 221 142 31
3 760 762 763 221 142 31
3 764 765 766 224 142 34
3 764 766 767 224 142 34
3 768 769 770 224 142 34
3 768 770 771 224 142 34
3 772 773 774 224 142 34
3 772 774 775 224 142 34
3 776 777 778 217 141 40
3 776 778 779 217 141 40
3 780 781 782 217 141 40
3 780 782 783 217 141 40
3 784 785 786 218 139 38
3 784 786 787 218 139 38
3 788 789 790 218 139 38
3 788 790 791 218 139 38
3 792 793 794 220 147 27
3 792 794 795 220 147 27
3 796 797 798 220 147 27
3 796 798 799 220 147 27
3 800 801 802 218 140 41
3 800 802 803 218 140 41
3 804 805 806 218 140 41
3 804 806 807 218 140 41
3 808 809 810 218 140 41
3 808 810 811 218 140 41
3 812 813 814 218 131 41
3 812 814 815 218 131 41
3 816 817 818 218 131 41
3 816 818 819 218 131 41
3 820 821 822 228 132 44
3 820 822 823 228 132 44
3 824 825 826 218 139 34
3 824 826 827 218 139 34
3 828 829 830 218 146 42
3 828 830 831 218 146 42
3 832 833 834 228 145 42
3 832 834 835 228 145 42
3 836 837 838 228 145 42
3 836 838 839 228 145 42
3 840 841 842 220 142 48
3 840 842 843 220 142 48
3 844 845 846 221 135 39
3 844 846 847 221 135 39
3 848 849 850 222 141 32
3 848 850 851 222 141 32
3 852 853 854 208 140 37
3 852 854 855 208 140 37
3 856 857 858 222 143 40
3 856 858 859 222 143 40
3 860 861 862 223 141 42
3 860 862 863 223 141 42
3 864 865 866 216 139 40
3 864 866 867 216 139 40
3 868 869 870 216 139 40
3 868 870 871 216 139 40
3 872 873 874 224 138 42
3 872 874 875 224 138 42
3 876 877 878 224 138 42
3 876 878 879 224 138 42
3 880 881 882 218 139 44
3 880 882 883 218 139 44
3 884 885 886 210 133 32
3 884 886 887 210 133 32
3 888 889 890 208 136 43
3 888 890 891 208 136 43
3 892 893 894 218 140 45
3 892 894 895 218 140 45
3 896 897 898 218 140 45
3 896 898 899 218 140 45
3 900 901 902 238 240 231
3 900 902 903 238 240 231
3 904 905 906 232 224 224
3 904 906 907 232 224 224
3 908 909 910 218 142 38
3 908 910 911 218 142 38
3 912 913 914 224 130 38
3 912 914 915 224 130 38
3 916 917 918 210 132 46
3 916 918 919 210 132 46
3 920 921 922 224 136 32
3 920 922 923 224 136 32
3 924 925 926 205 137 52
3 924 926 927 205 137 52
3 928 929 930 205 137 52
3 928 930 931 205 137 52
3 932 933 934 222 137 42
3 932 934 935 222 137 42
3 936 937 938 222 137 42
3 936 938 939 222 137 42
3 940 941 942 212 138 40
3 940 942 943 212 138 40
3 944 945 946 219 143 41
3 944 946 947 219 143 41
3 948 949 950 223 136 44
3 948 950 951 223 136 44
3 952 953 954 228 135 35
3 952 954 955 228 135 35
3 956 957 958 228 135 35
3 956 958 959 228 135 35
3 960 961 962 246 234 237
3 960 962 963 246 234 237
3 964 965 966 245 223 226
3 964 966 967 245 223 226
3 968 969 970 241 245 229
3 968 970 971 241 245 229
3 972 973 974 236 237 230
3 972 974 975 236 237 230
3 976 977 978 238 229 233
3 976 978 979 238 229 233
3 980 981 982 224 141 31
3 980 982 983 224 141 31
3 984 985 986 224 141 31
3 984 986 987 224 141 31
3 988 989 990 222 137 46
3 988 990 991 222 137 46
3 992 993 994 216 136 42
3 992 994 995 216 136 42
3 996 997 998 223 142 31
3 996 998 999 223 142 31
3 1000 1001 1002 222 134 41
3 1000 1002 1003 222 134 41
3 1004 1005 1006 222 134 41
3 1004 1006 1007 222 134 41
3 1008 1009 1010 212 142 35
3 1008 1010 1011 212 142 35
3 1012 1013 1014 212 142 35
3 1012 1014 1015 212 142 35
3 1016 1017 1018 213 143 41
3 1016 1018 1019 213 143 41
3 1020 1021 1022 216 147 37
3 1020 1022 1023 216 147 37
3 1024 1025 1026 220 141 36
3 1024 1026 1027 220 141 36
3 1028 1029 1030 222 137 37
3 1028 1030 1031 222 137 37
3 1032 1033 1034 222 137 37
3 1032 1034 1035 222 137 37
3 1036 1037 1038 246 229 217
3 1036 1038 1039 246 229 217
3 1040 1041 1042 250 235 228
3 1040 1042 1043 250 235 228
3 1044 1045 1046 240 241 228
3 1044 1046 1047 240 241 228
3 1048 1049 1050 236 228 234
3 1048 1050 1051 236 228 234
3 1052 1053 1054 247 232 227
3 1052 1054 1055 247 232 227
3 1056 1057 1058 214 139 45
3 1056 1058 1059 214 139 45
3 1060 1061 1062 214 139 45
3 1060 1062 1063 214 139 45
3 1064 1065 1066 215 135 42
3 1064 1066 1067 215 135 42
3 1068 1069 1070 218 143 39
3 1068 1070 1071 218 143 39
3 1072 1073 1074 218 133 32
3 1072 1074 1075 218 133 32
3 1076 1077 1078 223 138 34
3 1076 1078 1079 223 138 34
3 1080 1081 1082 223 138 34
3 1080 1082 1083 223 138 34
3 1084 1085 1086 219 145 28
3 1084 1086 1087 219 145 28
3 1088 1089 1090 212 135 47
3 1088 1090 1091 212 135 47
3 1092 1093 1094 221 143 34
3 1092 1094 1095 221 143 34
3 1096 1097 1098 214 142 40
3 1096 1098 1099 214 142 40
3 1100 1101 1102 214 142 40
3 1100 1102 1103 214 142 40
3 1104 1105 1106 242 234 231
3 1104 1106 1107 242 234 231
3 1108 1109 1110 242 233 225
3 1108 1110 1111 242 233 225
3 1112 1113 1114 243 238 231
3 1112 1114 1115 243 238 231
3 1116 1117 1118 241 235 223
3 1116 1118 1119 241 235 223
3 1120 1121 1122 242 236 221
3 1120 1122 1123 242 236 221
3 1124 1125 1126 213 138 41
3 1124 1126 1127 213 138 41
3 1128 1129 1130 213 138 41
3 1128 1130 1131 213 138 41
3 1132 1133 1134 218 137 41
3 1132 1134 1135 218 137 41
3 1136 1137 1138 217 136 41
3 1136 1138 1139 217 136 41
3 1140 1141 1142 217 141 41
3 1140 1142 1143 217 141 41
3 1144 1145 1146 214 137 47
3 1144 1146 1147 214 137 47
3 1148 1149 1150 214 137 47
3 1148 1150 1151 214 137 47
3 1152 1153 1154 214 129 30
3 1152 1154 1155 214 129 30
3 1156 1157 1158 214 129 30
3 1156 1158 1159 214 129 30
3 1160 1161 1162 220 140 39
3 1160 1162 1163 220 140 39
3 1164 1165 1166 226 126 41
3 1164 1166 1167 226 126 41
3 1168 1169 1170 227 134 38
3 1168 1170 1171 227 134 38
3 1172 1173 1174 216 135 38
3 1172 1174 1175 216 135 38
3 1176 1177 1178 216 135 38
3 1176 1178 1179 216 135 38
3 1180 1181 1182 217 137 39
3 1180 1182 1183 217 137 39
3 1184 1185 1186 214 134 34
3 1184 1186 1187 214 134 34
3 1188 1189 1190 222 136 44
3 1188 1190 1191 222 136 44
3 1192 1193 1194 225 147 42
3 1192 1194 1195 225 147 42
3 1196 1197 1198 226 130 38
3 1196 1198 1199 226 130 38
3 1200 1201 1202 215 140 37
3 1200 1202 1203 215 140 37
3 1204 1205 1206 219 149 39
3 1204 1206 1207 219 149 39
3 1208 1209 1210 219 149 39
3 1208 1210 1211 219 149 39
3 1212 1213 1214 222 138 40
3 1212 1214 1215 222 138 40
3 1216 1217 1218 222 138 40
3 1216 1218 1219 222 138 40
3 1220 1221 1222 222 138 40
3 1220 1222 1223 222 138 40
3 1224 1225 1226 220 142 45
3 1224 1226 1227 220 142 45
3 1228 1229 1230 220 142 45
3 1228 1230 1231 220 142 45
3 1232 1233 1234 228 141 42
3 1232 1234 1235 228 141 42
3 1236 1237 1238 228 141 42
3 1236 1238 1239 228 141 42
3 1240 1241 1242 214 139 44
3 1240 1242 1243 214 139 44
3 1244 1245 1246 214 139 44
3 1244 1246 1247 214 139 44
3 1248 1249 1250 224 141 44
3 1248 1250 1251 224 141 44
3 1252 1253 1254 224 141 44
3 1252 1254 1255 224 141 44
3 1256 1257 1258 224 141 44
3 1256 1258 1259 224 141 44
3 1260 1261 1262 222 146 41
3 1260 1262 1263 222 146 41
3 1264 1265 1266 218 141 25
3 1264 1266 1267 218 141 25
3 1268 1269 1270 221 121 31
3 1268 1270 1271 221 121 31
3 1272 1273 1274 222 142 34
3 1272 1274 1275 222 142 34
3 1276 1277 1278 216 146 37
3 1276 1278 1279 216 146 37
3 1280 1281 1282 216 146 37
3 1280 1282 1283 216 146 37
3 1284 1285 1286 231 139 42
3 1284 1286 1287 231 139 42
3 1288 1289 1290 228 140 34
3 1288 1290 1291 228 140 34
3 1292 1293 1294 219 139 33
3 1292 1294 1295 219 139 33
3 1296 1297 1298 218 136 44
3 1296 1298 1299 218 136 44
3 1300 1301 1302 220 138 39
3 1300 1302 1303 220 138 39
3 1304 1305 1306 220 138 39
3 1304 1306 1307 220 138 39
3 1308 1309 1310 221 143 35
3 1308 1310 1311 221 143 35
3 1312 1313 1314 221 143 35
3 1312 1314 1315 221 143 35
3 1316 1317 1318 214 145 37
3 1316 1318 1319 214 145 37
3 1320 1321 1322 212 142 42
3 1320 1322 1323 212 142 42
3 1324 1325 1326 212 141 43
3 1324 1326 1327 212 141 43
3 1328 1329 1330 221 143 32
3 1328 1330 1331 221 143 32
3 1332 1333 1334 221 143 32
3 1332 1334 1335 221 143 32
3 1336 1337 1338 221 138 37
3 1336 1338 1339 221 138 37
3 1340 1341 1342 221 138 37
3 1340 1342 1343 221 138 37
3 1344 1345 1346 224 147 48
3 1344 1346 1347 224 147 48
3 1348 1349 1350 226 139 41
3 1348 1350 1351 226 139 41
3 1352 1353 1354 223 140 40
3 1352 1354 1355 223 140 40
3 1356 1357 1358 224 139 36
3 1356 1358 1359 224 139 36
3 1360 1361 1362 224 139 36
3 1360 1362 1363 224 139 36
3 1364 1365 1366 217 143 40
3 1364 1366 1367 217 143 40
3 1368 1369 1370 221 143 38
3 1368 1370 1371 221 143 38
3 1372 1373 1374 223 141 33
3 1372 1374 1375 223 141 33
3 1376 1377 1378 227 137 31
3 1376 1378 1379 227 137 31
3 1380 1381 1382 214 134 40
3 1380 1382 1383 214 134 40
3 1384 1385 1386 214 134 40
3 1384 1386 1387 214 134 40
3 1388 1389 1390 218 138 43
3 1388 1390 1391 218 138 43
3 1392 1393 1394 218 138 43
3 1392 1394 1395 218 138 43
3 1396 1397 1398 221 141 42
3 1396 1398 1399 221 141 42
3 1400 1401 1402 221 141 42
3 1400 1402 1403 221 141 42
3 1404 1405 1406 223 129 38
3 1404 1406 1407 223 129 38
3 1408 1409 1410 223 129 38
3 1408 1410 1411 223 129 38
3 1412 1413 1414 209 140 39
3 1412 1414 1415 209 140 39
3 1416 1417 1418 209 140 39
3 1416 1418 1419 209 140 39
3 1420 1421 1422 225 145 41
3 1420 1422 1423 225 145 41
3 1424 1425 1426 225 145 41
3 1424 1426 1427 225 145 41
3 1428 1429 1430 225 145 41
3 1428 1430 1431 225 145 41
3 1432 1433 1434 217 142 37
3 1432 1434 1435 217 142 37
3 1436 1437 1438 217 142 37
3 1436 1438 1439 217 142 37
3 1440 1441 1442 219 144 37
3 1440 1442 1443 219 144 37
3 1444 1445 1446 224 143 35
3 1444 1446 1447 224 143 35
3 1448 1449 1450 224 143 40
3 1448 1450 1451 224 143 40
3 1452 1453 1454 216 135 37
3 1452 1454 1455 216 135 37
3 1456 1457 1458 216 135 37
3 1456 1458 1459 216 135 37
3 1460 1461 1462 222 135 42
3 1460 1462 1463 222 135 42
3 1464 1465 1466 222 139 47
3 1464 1466 1467 222 139 47
3 1468 1469 1470 217 145 36
3 1468 1470 1471 217 145 36
3 1472 1473 1474 215 141 46
3 1472 1474 1475 215 141 46
3 1476 1477 1478 234 137 47
3 1476 1478 1479 234 137 47
3 1480 1481 1482 218 137 40
3 1480 1482 1483 218 137 40
3 1484 1485 1486 223 140 36
3 1484 1486 1487 223 140 36
3 1488 1489 1490 214 143 33
3 1488 1490 1491 214 143 33
3 1492 1493 1494 216 146 44
3 1492 1494 1495 216 146 44
3 1496 1497 1498 216 146 44
3 1496 1498 1499 216 146 44
3 1500 1501 1502 227 138 34
3 1500 1502 1503 227 138 34
3 1504 1505 1506 218 140 40
3 1504 1506 1507 218 140 40
3 1508 1509 1510 225 138 41
3 1508 1510 1511 225 138 41
3 1512 1513 1514 215 142 40
3 1512 1514 1515 215 142 40
3 1516 1517 1518 215 142 40
3 1516 1518 1519 215 142 40
3 1520 1521 1522 216 138 39
3 1520 1522 1523 216 138 39
3 1524 1525 1526 216 138 39
3 1524 1526 1527 216 138 39
3 1528 1529 1530 216 138 39
3 1528 1530 1531 216 138 39
3 1532 1533 1534 218 148 39
3 1532 1534 1535 218 148 39
3 1536 1537 1538 218 148 39
3 1536 1538 1539 218 148 39
3 1540 1541 1542 218 129 35
3 1540 1542 1543 218 129 35
3 1544 1545 1546 218 129 35
3 1544 1546 1547 218 129 35
3 1548 1549 1550 218 136 46
3 1548 1550 1551 218 136 46
3 1552 1553 1554 218 136 46
3 1552 1554 1555 218 136 46
3 1556 1557 1558 218 136 46
3 1556 1558 1559 218 136 46
3 1560 1561 1562 219 146 40
3 1560 1562 1563 219 146 40
3 1564 1565 1566 220 139 40
3 1564 1566 1567 220 139 40
3 1568 1569 1570 228 128 29
3 1568 1570 1571 228 128 29
3 1572 1573 1574 217 140 43
3 1572 1574 1575 217 140 43
3 1576 1577 1578 217 140 43
3 1576 1578 1579 217 140 43
3 1580 1581 1582 222 138 45
3 1580 1582 1583 222 138 45
3 1584 1585 1586 225 140 44
3 1584 1586 1587 225 140 44
3 1588 1589 1590 221 137 43
3 1588 1590 1591 221 137 43
3 1592 1593 1594 220 140 47
3 1592 1594 1595 220 140 47
3 1596 1597 1598 207 132 34
3 1596 1598 1599 207 132 34
3 1600 1601 1602 218 138 32
3 1600 1602 1603 218 138 32
3 1604 1605 1606 215 135 52
3 1604 1606 1607 215 135 52
3 1608 1609 1610 229 137 38
3 1608 1610 1611 229 137 38
3 1612 1613 1614 214 130 39
3 1612 1614 1615 214 130 39
3 1616 1617 1618 215 139 31
3 1616 1618 1619 215 139 31
3 1620 1621 1622 216 140 41
3 1620 1622 1623 216 140 41
3 1624 1625 1626 222 133 44
3 1624 1626 1627 222 133 44
3 1628 1629 1630 222 133 44
3 1628 1630 1631 222 133 44
3 1632 1633 1634 215 143 39
3 1632 1634 1635 215 143 39
3 1636 1637 1638 215 143 39
3 1636 1638 1639 215 143 39
3 1640 1641 1642 213 138 41
3 1640 1642 1643 213 138 41
3 1644 1645 1646 213 138 41
3 1644 1646 1647 213 138 41
3 1648 1649 1650 223 139 47
3 1648 1650 1651 223 139 47
3 1652 1653 1654 223 139 47
3 1652 1654 1655 223 139 47
3 1656 1657 1658 225 138 43
3 1656 1658 1659 225 138 43
3 1660 1661 1662 225 138 43
3 1660 1662 1663 225 138 43
3 1664 1665 1666 225 138 43
3 1664 1666 1667 225 138 43
3 1668 1669 1670 229 149 33
3 1668 1670 1671 229 149 33
3 1672 1673 1674 229 149 33
3 1672 1674 1675 229 149 33
3 1676 1677 1678 235 242 224
3 1676 1678 1679 235 242 224
3 1680 1681 1682 73 197 82
3 1680 1682 1683 73 197 82
3 1684 1685 1686 219 136 36
3 1684 1686 1687 219 136 36
3 1688 1689 1690 219 136 36
3 1688 1690 1691 219 136 36
3 1692 1693 1694 213 130 28
3 1692 1694 1695 213 130 28
3 1696 1697 1698 227 136 41
3 1696 1698 1699 227 136 41
3 1700 1701 1702 216 136 43
3 1700 1702 1703 216 136 43
3 1704 1705 1706 219 148 37
3 1704 1706 1707 219 148 37
3 1708 1709 1710 224 140 43
3 1708 1710 1711 224 140 43
3 1712 1713 1714 217 139 39
3 1712 1714 1715 217 139 39
3 1716 1717 1718 217 139 39
3 1716 1718 1719 217 139 39
3 1720 1721 1722 215 143 43
3 1720 1722 1723 215 143 43
3 1724 1725 1726 215 143 43
3 1724 1726 1727 215 143 43
3 1728 1729 1730 32 37 42
3 1728 1730 1731 32 37 42
3 1732 1733 1734 238 236 226
3 1732 1734 1735 238 236 226
3 1736 1737 1738 220 137 48
3 1736 1738 1739 220 137 48
3 1740 1741 1742 220 137 48
3 1740 1742 1743 220 137 48
3 1744 1745 1746 219 150 44
3 1744 1746 1747 219 150 44
3 1748 1749 1750 215 140 29
3 1748 1750 1751 215 140 29
3 1752 1753 1754 224 136 42
3 1752 1754 1755 224 136 42
3 1756 1757 1758 212 141 44
3 1756 1758 1759 212 141 44
3 1760 1761 1762 221 132 39
3 1760 1762 1763 221 132 39
3 1764 1765 1766 223 130 34
3 1764 1766 1767 223 130 34
3 1768 1769 1770 224 141 42
3 1768 1770 1771 224 141 42
3 1772 1773 1774 229 142 43
3 1772 1774 1775 229 142 43
3 1776 1777 1778 229 142 43
3 1776 1778 1779 229 142 43
3 1780 1781 1782 233 138 36
3 1780 1782 1783 233 138 36
3 1784 1785 1786 233 138 36
3 1784 1786 1787 233 138 36
3 1788 1789 1790 242 152 147
3 1788 1790 1791 242 152 147
3 1792 1793 1794 234 246 231
3 1792 1794 1795 234 246 231
3 1796 1797 1798 216 144 39
3 1796 1798 1799 216 144 39
3 1800 1801 1802 216 144 39
3 1800 1802 1803 216 144 39
3 1804 1805 1806 218 138 44
3 1804 1806 1807 218 138 44
3 1808 1809 1810 224 142 31
3 1808 1810 1811 224 142 31
3 1812 1813 1814 219 131 40
3 1812 1814 1815 219 131 40
3 1816 1817 1818 229 143 39
3 1816 1818 1819 229 143 39
3 1820 1821 1822 222 132 45
3 1820 1822 1823 222 132 45
3 1824 1825 1826 218 138 37
3 1824 1826 1827 218 138 37
3 1828 1829 1830 217 143 41
3 1828 1830 1831 217 143 41
3 1832 1833 1834 223 139 42
3 1832 1834 1835 223 139 42
3 1836 1837 1838 223 139 42
3 1836 1838 1839 223 139 42
3 1840 1841 1842 217 151 32
3 1840 1842 1843 217 151 32
3 1844 1845 1846 217 151 32
3 1844 1846 1847 217 151 32
3 1848 1849 1850 36 36 30
3 1848 1850 1851 36 36 30
3 1852 1853 1854 91 204 84
3 1852 1854 1855 91 204 84
3 1856 1857 1858 220 138 38
3 1856 1858 1859 220 138 38
3 1860 1861 1862 220 138 38
3 1860 1862 1863 220 138 38
3 1864 1865 1866 215 135 31
3 1864 1866 1867 215 135 31
3 1868 1869 1870 227 139 41
3 1868 1870 1871 227 139 41
3 1872 1873 1874 219 151 40
3 1872 1874 1875 219 151 40
3 1876 1877 1878 213 132 31
3 1876 1878 1879 213 132 31
3 1880 1881 1882 220 145 39
3 1880 1882 1883 220 145 39
3 1884 1885 1886 208 139 39
3 1884 1886 1887 208 139 39
3 1888 1889 1890 230 132 38
3 1888 1890 1891 230 132 38
3 1892 1893 1894 228 142 42
3 1892 1894 1895 228 142 42
3 1896 1897 1898 228 142 42
3 1896 1898 1899 228 142 42
3 1900 1901 1902 220 141 43
3 1900 1902 1903 220 141 43
3 1904 1905 1906 220 141 43
3 1904 1906 1907 220 141 43
3 1908 1909 1910 220 141 43
3 1908 1910 1911 220 141 43
3 1912 1913 1914 215 144 33
3 1912 1914 1915 215 144 33
3 1916 1917 1918 215 144 33
3 1916 1918 1919 215 144 33
3 1920 1921 1922 221 140 36
3 1920 1922 1923 221 140 36
3 1924 1925 1926 221 140 36
3 1924 1926 1927 221 140 36
3 1928 1929 1930 219 136 34
3 1928 1930 1931 219 136 34
3 1932 1933 1934 219 136 34
3 1932 1934 1935 219 136 34
3 1936 1937 1938 219 136 34
3 1936 1938 1939 219 136 34
3 1940 1941 1942 218 134 41
3 1940 1942 1943 218 134 41
3 1944 1945 1946 214 143 34
3 1944 1946 1947 214 143 34
3 1948 1949 1950 217 136 46
3 1948 1950 1951 217 136 46
3 1952 1953 1954 221 138 42
3 1952 1954 1955 221 138 42
3 1956 1957 1958 221 138 42
3 1956 1958 1959 221 138 42
3 1960 1961 1962 209 139 49
3 1960 1962 1963 209 139 49
3 1964 1965 1966 220 140 42
3 1964 1966 1967 220 140 42
3 1968 1969 1970 224 130 31
3 1968 1970 1971 224 130 31
3 1972 1973 1974 221 136 46
3 1972 1974 1975 221 136 46
3 1976 1977 1978 218 130 33
3 1976 1978 1979 218 130 33
3 1980 1981 1982 206 138 39
3 1980 1982 1983 206 138 39
3 1984 1985 1986 217 145 45
3 1984 1986 1987 217 145 45
3 1988 1989 1990 219 129 43
3 1988 1990 1991 219 129 43
3 1992 1993 1994 222 141 44
3 1992 1994 1995 222 141 44
3 1996 1997 1998 214 150 35
3 1996 1998 1999 214 150 35
3 2000 2001 2002 223 131 35
3 2000 2002 2003 223 131 35
3 2004 2005 2006 227 138 44
3 2004 2006 2007 227 138 44
3 2008 2009 2010 227 138 44
3 2008 2010 2011 227 138 44
3 2012 2013 2014 221 139 46
3 2012 2014 2015 221 139 46
3 2016 2017 2018 221 139 46
3 2016 2018 2019 221 139 46
3 2020 2021 2022 218 131 35
3 2020 2022 2023 218 131 35
3 2024 2025 2026 218 131 35
3 2024 2026 2027 218 131 35
3 2028 2029 2030 222 141 32
3 2028 2030 2031 222 141 32
3 2032 2033 2034 222 141 32
3 2032 2034 2035 222 141 32
3 2036 2037 2038 216 137 38
3 2036 2038 2039 216 137 38
3 2040 2041 2042 216 137 38
3 2040 2042 2043 216 137 38
3 2044 2045 2046 216 137 38
3 2044 2046 2047 216 137 38
3 2048 2049 2050 173 96 16
3 2048 2050 2051 173 96 16
3 2052 2053 2054 173 96 16
3 2052 2054 2055 173 96 16
3 2056 2057 2058 243 154 149
3 2056 2058 2059 243 154 149
3 2060 2061 2062 243 154 149
3 2060 2062 2063 243 154 149
3 2064 2065 2066 243 154 149
3 2064 2066 2067 243 154 149
3 2068 2069 2070 178 100 15
3 2068 2070 2071 178 100 15
3 2072 2073 2074 178 100 15
3 2072 2074 2075 178 100 15
3 2076 2077 2078 178 100 15
3 2076 2078 2079 178 100 15
3 2080 2081 2082 174 95 16
3 2080 2082 2083 174 95 16
3 2084 2085 2086 174 95 16
3 2084 2086 2087 174 95 16
3 2088 2089 2090 174 100 23
3 2088 2090 2091 174 100 23
3 2092 2093 2094 174 100 23
3 2092 2094 2095 174 100 23
3 2096 2097 2098 174 100 23
3 2096 2098 2099 174 100 23
3 2100 2101 2102 174 100 23
3 2100 2102 2103 174 100 23
3 2104 2105 2106 174 100 23
3 2104 2106 2107 174 100 23
3 2108 2109 2110 172 100 18
3 2108 2110 2111 172 100 18
3 2112 2113 2114 172 100 18
3 2112 2114 2115 172 100 18
3 2116 2117 2118 172 100 18
3 2116 2118 2119 172 100 18
3 2120 2121 2122 172 100 18
3 2120 2122 2123 172 100 18
3 2124 2125 2126 172 100 18
3 2124 2126 2127 172 100 18
3 2128 2129 2130 181 99 12
3 2128 2130 2131 181 99 12
3 2132 2133 2134 181 99 12
3 2132 2134 2135 181 99 12
3 2136 2137 2138 233 150 155
3 2136 2138 2139 233 150 155
3 2140 2141 2142 233 150 155
3 2140 2142 2143 233 150 155
3 2144 2145 2146 233 150 155
3 2144 2146 2147 233 150 155
3 2148 2149 2150 233 150 155
3 2148 2150 2151 233 150 155
3 2152 2153 2154 168 101 25
3 2152 2154 2155 168 101 25
3 2156 2157 2158 168 101 25
3 2156 2158 2159 168 101 25
3 2160 2161 2162 168 101 25
3 2160 2162 2163 168 101 25
3 2164 2165 2166 179 102 16
3 2164 2166 2167 179 102 16
3 2168 2169 2170 179 102 16
3 2168 2170 2171 179 102 16
3 2172 2173 2174 179 102 16
3 2172 2174 2175 179 102 16
3 2176 2177 2178 179 91 8
3 2176 2178 2179 179 91 8
3 2180 2181 2182 179 91 8
3 2180 2182 2183 179 91 8
3 2184 2185 2186 179 91 8
3 2184 2186 2187 179 91 8
3 2188 2189 2190 179 91 8
3 2188 2190 2191 179 91 8
3 2192 2193 2194 179 91 8
3 2192 2194 2195 179 91 8
3 2196 2197 2198 184 95 17
3 2196 2198 2199 184 95 17
3 2200 2201 2202 184 95 17
3 2200 2202 2203 184 95 17
3 2204 2205 2206 184 95 17
3 2204 2206 2207 184 95 17
3 2208 2209 2210 184 95 17
3 2208 2210 2211 184 95 17
3 2212 2213 2214 184 95 17
3 2212 2214 2215 184 95 17
3 2216 2217 2218 213 132 39
3 2216 2218 2219 213 132 39
3 2220 2221 2222 213 132 39
3 2220 2222 2223 213 132 39
3 2224 2225 2226 213 132 39
3 2224 2226 2227 213 132 39
3 2228 2229 2230 213 132 39
3 2228 2230 2231 213 132 39
3 2232 2233 2234 216 141 42
3 2232 2234 2235 216 141 42
3 2236 2237 2238 216 141 42
3 2236 2238 2239 216 141 42
3 2240 2241 2242 216 141 42
3 2240 2242 2243 216 141 42
3 2244 2245 2246 221 141 47
3 2244 2246 2247 221 141 47
3 2248 2249 2250 221 141 47
3 2248 2250 2251 221 141 47
3 2252 2253 2254 221 141 47
3 2252 2254 2255 221 141 47
3 2256 2257 2258 221 141 47
3 2256 2258 2259 221 141 47
3 2260 2261 2262 221 141 47
3 2260 2262 2263 221 141 47
3 2264 2265 2266 214 139 45
3 2264 2266 2267 214 139 45
3 2268 2269 2270 214 139 45
3 2268 2270 2271 214 139 45
3 2272 2273 2274 214 139 45
3 2272 2274 2275 214 139 45
3 2276 2277 2278 214 139 45
3 2276 2278 2279 214 139 45
3 2280 2281 2282 214 139 45
3 2280 2282 2283 214 139 45
3 2284 2285 2286 255 242 238
3 2284 2286 2287 255 242 238
3 2288 2289 2290 255 242 238
3 2288 2290 2291 255 242 238
3 2292 2293 2294 255 242 238
3 2292 2294 2295 255 242 238
3 2296 2297 2298 255 242 238
3 2296 2298 2299 255 242 238
3 2300 2301 2302 255 252 240
3 2300 2302 2303 255 252 240
3 2304 2305 2306 255 252 240
3 2304 2306 2307 255 252 240
3 2308 2309 2310 255 252 240
3 2308 2310 2311 255 252 240
3 2312 2313 2314 255 252 240
3 2312 2314 2315 255 252 240
3 2316 2317 2318 255 252 240
3 2316 2318 2319 255 252 240
